<?xml version="1.0" encoding="iso-8859-1"?>
<!-- Uploaded to: SVG Repo, www.svgrepo.com, Generator: SVG Repo Mixer Tools -->
<svg fill="#000000" height="800px" width="800px" version="1.1" id="Layer_1" xmlns="http://www.w3.org/2000/svg" xmlns:xlink="http://www.w3.org/1999/xlink" 
	 viewBox="0 0 511.059 511.059" xml:space="preserve">
<g>
	<g>
		<path d="M407.021,222.709v-36.992c0-18.219-14.831-33.058-33.058-33.058h-20.045c-0.171-0.811-0.094-1.527,0-1.92
			c0.171-0.759,0.802-2.603,3.601-3.439c9.617-2.859,15.787-11.511,15.343-21.538c-0.435-10.018-7.339-18.099-17.724-20.215
			c-2.295-0.469-3.089-2.253-3.328-3.004c-0.23-0.742-0.606-2.654,1.408-4.779c6.903-7.287,7.91-17.86,2.526-26.317
			c-5.385-8.457-15.394-12.015-25.472-8.653c-2.227,0.717-3.806-0.418-4.378-0.93c-0.58-0.529-1.86-2.005-1.306-4.292
			c0.009-0.043,0.196-0.87,0.205-0.905c1.664-7.398-0.725-14.925-6.409-20.147c-5.862-5.385-14.165-7.253-21.7-4.881
			c-0.546,0.171-1.084,0.41-1.587,0.683l-77.406,43.059l-98.415-70.11c-9.19-5.367-19.874-6.673-30.08-3.746
			c-10.214,2.953-18.543,9.771-23.45,19.191c-4.907,9.438-5.717,20.173-2.278,30.225c3.447,10.061,10.658,18.048,20.233,22.443
			l108.015,51.183l9.173,88.695c0.06,0.572,0.171,1.143,0.35,1.69c1.792,5.683,5.828,10.334,11.034,13.013
			c-22.52,19.063-35.652,46.916-35.652,76.851v112.375c0,51.763,42.103,93.867,93.867,93.867h85.333
			c51.755,0,93.867-42.103,93.867-93.867V304.817C449.688,271.938,433.747,241.679,407.021,222.709z M198.151,103.43l-2.21,4.25
			L90.921,57.931c-5.367-2.475-9.387-6.921-11.298-12.518c-1.92-5.589-1.468-11.563,1.263-16.811
			c2.731-5.248,7.364-9.037,13.047-10.684c2.048-0.58,4.122-0.862,6.153-0.862c3.618,0,7.083,0.887,9.933,2.534l96.111,68.514
			L198.151,103.43z M237.319,114.583c1.468-2.825,4.386-4.591,7.569-4.591h75.895c4.71,0,8.533,3.823,8.533,8.533
			c0,4.719-3.823,8.533-8.533,8.533h-59.52l32.384,46.31c2.697,3.866,1.758,9.182-2.108,11.887
			c-1.485,1.041-3.191,1.536-4.881,1.536c-2.688,0-5.342-1.263-6.997-3.635l-41.771-59.733
			C236.064,120.813,235.851,117.408,237.319,114.583z M389.954,227.01v103.1c0,33.903-27.588,61.483-61.491,61.483h-30.626
			c-33.903,0-61.483-27.58-61.483-61.483v-103.1v-1.886c0.41-0.367,0.776-0.742,1.135-1.126c0.034-0.034,0.077-0.051,0.102-0.085
			c0.043-0.034,0.102-0.111,0.154-0.162c0,0,0,0,0-0.009c0.017-0.017,0.077-0.077,0.102-0.102c0.128-0.145,0.265-0.282,0.35-0.375
			h-0.009c0.119-0.137,0.247-0.273,0.299-0.324c1.545-1.758,3.49-1.553,4.258-1.382c0.76,0.162,2.611,0.794,3.448,3.601
			c0.35,1.186,0.785,2.313,1.306,3.379c0.256,0.538,0.589,1.016,0.887,1.519c0.29,0.495,0.546,1.016,0.87,1.485
			c0.555,0.785,1.178,1.502,1.818,2.202c0.111,0.128,0.205,0.265,0.324,0.384c3.098,3.234,7.159,5.367,11.682,6.093
			c0.051,0.009,0.102,0.026,0.162,0.034c0.836,0.128,1.698,0.179,2.569,0.205c0.307,0.009,0.597,0.068,0.905,0.068
			c0.333,0,0.666-0.009,1.007-0.026c10.018-0.435,18.099-7.339,20.224-17.732c0.469-2.295,2.253-3.089,2.995-3.32
			c0.751-0.247,2.654-0.623,4.779,1.408c7.279,6.895,17.86,7.919,26.317,2.534c8.465-5.376,12.023-15.394,8.661-25.472
			c-0.742-2.227,0.41-3.806,0.939-4.386c0.521-0.572,1.997-1.852,4.847-1.169c1.22,0.29,2.432,0.478,3.644,0.563
			c1.468,0.102,2.91,0.009,4.335-0.179c2.074-0.273,4.087-0.802,5.965-1.664c0.299-0.137,0.563-0.333,0.853-0.478
			c0.742-0.384,1.485-0.751,2.176-1.22c0.273-0.188,0.503-0.418,0.76-0.614c1.613-1.203,3.106-2.603,4.352-4.267
			c0.188-0.247,0.333-0.546,0.504-0.811c0.512-0.742,1.024-1.485,1.451-2.304l0.009-0.008v-0.017
			c0.879-1.681,1.442-3.422,1.852-5.18c0.077-0.316,0.162-0.631,0.222-0.947c0.316-1.698,0.41-3.396,0.299-5.094
			c-0.009-0.136,0.043-0.282,0.026-0.418h11.034c8.815,0,15.991,7.177,15.991,15.991V227.01z"/>
	</g>
</g>
</svg>